<svg xmlns="http://www.w3.org/2000/svg" width="48" height="24" viewBox="0 0 48 24">
  <defs>
    <!-- Brown trout body gradient — dark olive dorsal → golden-bronze lateral → cream belly -->
    <linearGradient id="brownBody" x1="0" y1="0" x2="0" y2="1">
      <stop offset="0%" stop-color="#2a3a12"/>
      <stop offset="15%" stop-color="#4a5a28"/>
      <stop offset="30%" stop-color="#8a7a3a"/>
      <stop offset="48%" stop-color="#c4a44a"/>
      <stop offset="62%" stop-color="#d4a840"/>
      <stop offset="78%" stop-color="#e8c870"/>
      <stop offset="90%" stop-color="#f0e0a8"/>
      <stop offset="100%" stop-color="#f8f0d8"/>
    </linearGradient>
    <!-- Tail fin gradient — amber-brown -->
    <linearGradient id="brownTail" x1="0" y1="0" x2="1" y2="0">
      <stop offset="0%" stop-color="#8a6a2a"/>
      <stop offset="100%" stop-color="#5a4a1a"/>
    </linearGradient>
    <!-- Dorsal fin gradient -->
    <linearGradient id="brownDorsal" x1="0" y1="1" x2="0" y2="0">
      <stop offset="0%" stop-color="#5a5a28"/>
      <stop offset="100%" stop-color="#3a3a14"/>
    </linearGradient>
    <!-- Swimming animation -->
    <animateTransform id="swimBrown" attributeName="transform" type="translate"
      values="0,0; 0.3,-0.15; 0,0; -0.3,0.15; 0,0" dur="2.8s" repeatCount="indefinite"/>
  </defs>
  <g>
    <animateTransform attributeName="transform" type="translate"
      values="0,0; 0.35,-0.18; 0,0; -0.35,0.18; 0,0" dur="3s" repeatCount="indefinite"/>
    <!-- Tail fin — natural fork -->
    <g>
      <animateTransform attributeName="transform" type="rotate"
        values="0 40 12; 3 40 12; 0 40 12; -3 40 12; 0 40 12" dur="1.5s" repeatCount="indefinite"/>
      <path d="M37 8 Q40 5 44 6 Q42 9 42 12 Q42 15 44 18 Q40 19 37 16 Q39 12 37 8z"
        fill="url(#brownTail)" stroke="#1a1a0a" stroke-width="0.7" opacity="0.9"/>
      <path d="M39 9.5 Q41 7.5 43 7" stroke="#3a3a1a" stroke-width="0.3" fill="none" opacity="0.3"/>
      <path d="M39 14.5 Q41 16.5 43 17" stroke="#3a3a1a" stroke-width="0.3" fill="none" opacity="0.3"/>
    </g>
    <!-- Main body -->
    <path d="M3 12C3 12 5 4.5 14 3.5c4.5-.5 9 1 14 2.5l5-1.5c1.5-.5 3.5-.2 5 .8l3 2.2c.6.5.6 1.2 0 1.7l-3 2.2c-1.5 1-3.5 1.3-5 .8L32 11c-3.5 1.5-9 3-14 2.8C8 13.5 3 12 3 12z"
      fill="url(#brownBody)" stroke="#0a0a00" stroke-width="1.5" stroke-linejoin="round"/>
    <!-- Golden-amber lateral band (brown trout characteristic) -->
    <path d="M7 11.3 Q15 10.5 25 11 Q32 11.3 37 11" stroke="#c4881a" stroke-width="1.5" fill="none" opacity="0.3"/>
    <!-- Lateral line -->
    <path d="M8 11h27" stroke="#4a3a1a" stroke-width="0.35" opacity="0.4"/>
    <!-- Dark spots — large scattered (brown trout signature) -->
    <circle cx="11" cy="7" r="1.1" fill="#1a0a00" opacity="0.5"/>
    <circle cx="16" cy="6.5" r="0.95" fill="#1a0a00" opacity="0.45"/>
    <circle cx="21" cy="6" r="1.0" fill="#1a0a00" opacity="0.5"/>
    <circle cx="26" cy="7" r="0.85" fill="#1a0a00" opacity="0.4"/>
    <circle cx="30" cy="7.5" r="0.8" fill="#1a0a00" opacity="0.35"/>
    <circle cx="14" cy="9" r="0.7" fill="#1a0a00" opacity="0.35"/>
    <circle cx="23" cy="8.5" r="0.75" fill="#1a0a00" opacity="0.4"/>
    <circle cx="18" cy="8" r="0.65" fill="#1a0a00" opacity="0.35"/>
    <!-- Red/orange spots with cream halos (brown trout distinguishing feature) -->
    <circle cx="13" cy="10.5" r="0.8" fill="#f0e0c0" opacity="0.5"/>
    <circle cx="13" cy="10.5" r="0.5" fill="#e04020" opacity="0.55"/>
    <circle cx="18" cy="10" r="0.75" fill="#f0e0c0" opacity="0.45"/>
    <circle cx="18" cy="10" r="0.45" fill="#e04020" opacity="0.5"/>
    <circle cx="23" cy="10.3" r="0.7" fill="#f0e0c0" opacity="0.45"/>
    <circle cx="23" cy="10.3" r="0.4" fill="#d03818" opacity="0.5"/>
    <circle cx="28" cy="10" r="0.65" fill="#f0e0c0" opacity="0.4"/>
    <circle cx="28" cy="10" r="0.35" fill="#e04020" opacity="0.45"/>
    <circle cx="10" cy="9.5" r="0.6" fill="#f0e0c0" opacity="0.4"/>
    <circle cx="10" cy="9.5" r="0.35" fill="#d83818" opacity="0.45"/>
    <!-- Dorsal fin with animation -->
    <g>
      <animateTransform attributeName="transform" type="rotate"
        values="0 18 4; -2 18 4; 0 18 4; 2 18 4; 0 18 4" dur="3.2s" repeatCount="indefinite"/>
      <path d="M16 4.5 Q18 1 22 2.5 Q20 3.5 18.5 4.5" fill="url(#brownDorsal)" stroke="#0a0a00" stroke-width="0.6" opacity="0.85"/>
      <path d="M17 4 Q18 2 19 2.5" stroke="#3a3a14" stroke-width="0.25" fill="none" opacity="0.35"/>
      <path d="M18.5 3.8 Q19 2.2 20 2.8" stroke="#3a3a14" stroke-width="0.25" fill="none" opacity="0.35"/>
    </g>
    <!-- Adipose fin (salmonid feature) -->
    <ellipse cx="32" cy="5.5" rx="1.5" ry="1" fill="#8a6a2a" stroke="#0a0a00" stroke-width="0.4" opacity="0.55"/>
    <!-- Pectoral fin -->
    <g>
      <animateTransform attributeName="transform" type="rotate"
        values="0 13 14; 4 13 14; 0 13 14; -3 13 14; 0 13 14" dur="2.2s" repeatCount="indefinite"/>
      <path d="M12 13.5 Q10 16.5 14 15.5 Q13 14 12 13.5z" fill="#c4a050" stroke="#0a0a00" stroke-width="0.4" opacity="0.65"/>
    </g>
    <!-- Pelvic fin -->
    <path d="M20 14 Q19 16 22 15 Q21 14.2 20 14z" fill="#c4a050" stroke="#0a0a00" stroke-width="0.3" opacity="0.55"/>
    <!-- Anal fin -->
    <path d="M28 14 Q27 16.5 30 15 Q29 14 28 14z" fill="#b89848" stroke="#0a0a00" stroke-width="0.3" opacity="0.55"/>
    <!-- Gill plate -->
    <path d="M10 6.5 Q9 10 10 14.5" stroke="#0a0a00" stroke-width="0.6" fill="none" opacity="0.3"/>
    <path d="M10.5 7 Q9.5 10 10.5 14" stroke="#c48830" stroke-width="0.4" fill="none" opacity="0.15"/>
    <!-- Eye — large, amber iris (brown trout characteristic) -->
    <circle cx="7" cy="9.5" r="1.6" fill="#111" stroke="#c4a050" stroke-width="0.5"/>
    <circle cx="7.2" cy="9.2" r="0.8" fill="#2a1a0a"/>
    <circle cx="6.7" cy="9" r="0.4" fill="#fff" opacity="0.75"/>
    <!-- Mouth — slightly hooked jaw (brown trout feature) -->
    <path d="M3 12 Q2.5 11.3 3.5 10.8" stroke="#0a0a00" stroke-width="0.5" fill="none" opacity="0.5"/>
    <!-- Subtle body sheen -->
    <path d="M8 7 Q18 5.5 30 7" stroke="#fff" stroke-width="0.3" fill="none" opacity="0.1"/>
  </g>
</svg>
