<svg xmlns="http://www.w3.org/2000/svg" width="32" height="16" viewBox="0 0 32 16">
  <!-- Body silhouette with thick black outline -->
  <path d="M1 8.5C1 8.5 3.5 3 10 2.5c3.5-.3 7 .8 10 2l4-1.5c1-.4 2.5-.2 3.5.5l2.5 2c.5.4.5 1 0 1.4L28 8.5l2 1.5c.4.4.3 1-.2 1.3l-2.5 1.2c-1 .5-2.2.6-3.2.2L20 11c-3 1.2-6.5 2-10 1.8C4 12.5 1 8.5 1 8.5z"
    fill="url(#troutBody)" stroke="#0a0a0a" stroke-width="1.4" stroke-linejoin="round"/>
  <!-- Gradient: olive-gold rainbow trout -->
  <defs>
    <linearGradient id="troutBody" x1="0" y1="0" x2="0" y2="1">
      <stop offset="0%" stop-color="#5a7a3a"/>
      <stop offset="30%" stop-color="#8aaa4a"/>
      <stop offset="50%" stop-color="#ffe082"/>
      <stop offset="70%" stop-color="#ffb347"/>
      <stop offset="85%" stop-color="#ff7e7e"/>
      <stop offset="100%" stop-color="#f5f5dc"/>
    </linearGradient>
  </defs>
  <!-- Lateral line -->
  <path d="M5 8h18" stroke="#6b4c2a" stroke-width="0.4" opacity="0.5"/>
  <!-- Spots -->
  <circle cx="8" cy="5.5" r="0.7" fill="#2a1a0a" opacity="0.6"/>
  <circle cx="11" cy="4.5" r="0.6" fill="#2a1a0a" opacity="0.5"/>
  <circle cx="14" cy="5" r="0.7" fill="#2a1a0a" opacity="0.6"/>
  <circle cx="10" cy="7" r="0.5" fill="#8b2020" opacity="0.5"/>
  <circle cx="13" cy="7.5" r="0.6" fill="#8b2020" opacity="0.5"/>
  <circle cx="16" cy="6" r="0.5" fill="#2a1a0a" opacity="0.5"/>
  <circle cx="18" cy="7" r="0.4" fill="#2a1a0a" opacity="0.4"/>
  <circle cx="7" cy="9" r="0.5" fill="#8b2020" opacity="0.4"/>
  <!-- Dorsal fin -->
  <path d="M12 3.5 Q14 1 16 3" fill="#5a7a3a" stroke="#0a0a0a" stroke-width="0.6" opacity="0.8"/>
  <!-- Pectoral fin -->
  <path d="M9 9.5 Q8 11.5 10.5 10.5" fill="#c9a050" stroke="#0a0a0a" stroke-width="0.4" opacity="0.7"/>
  <!-- Tail fin -->
  <path d="M27.5 5.5 Q30 8 27.5 10.5 Q28.5 8 27.5 5.5z" fill="#7a9a4a" stroke="#0a0a0a" stroke-width="0.6" opacity="0.85"/>
  <!-- Eye -->
  <circle cx="5" cy="7" r="1.1" fill="#111" stroke="#ffe082" stroke-width="0.3"/>
  <circle cx="4.7" cy="6.8" r="0.35" fill="#fff"/>
  <!-- Gill line -->
  <path d="M7 5.5 Q6.5 8 7 10" stroke="#0a0a0a" stroke-width="0.5" fill="none" opacity="0.4"/>
</svg>
